# Blender v2.78 (sub 0) OBJ File: 'ostrich.blend'
# www.blender.org
mtllib ostrich.mtl
o Leg.001_Cube.005
v 1.034810 -5.741909 1.017450
v 1.034810 -5.537297 1.017450
v 0.259131 -5.741909 0.366578
v 0.259131 -5.537297 0.366578
v 1.166332 -5.741909 0.860709
v 1.166332 -5.537297 0.860709
v 0.390652 -5.741909 0.209836
v 0.390652 -5.537297 0.209836
v 0.878068 -5.741909 0.860709
v 0.878068 -5.537297 0.860709
v 1.653748 -5.741909 0.209836
v 1.653748 -5.537297 0.209836
v 1.009590 -5.741909 1.017450
v 1.009590 -5.537297 1.017450
v 1.785269 -5.741909 0.366578
v 1.785269 -5.537297 0.366578
v 0.919894 -5.741909 0.975624
v 0.919894 -5.537297 0.975624
v 0.919894 -5.741909 -0.036953
v 0.919894 -5.537297 -0.036953
v 1.124506 -5.741909 0.975624
v 1.124506 -5.537297 0.975624
v 1.124506 -5.741909 -0.036953
v 1.124506 -5.537297 -0.036953
v 0.875002 -5.741909 1.061603
v 0.875002 -1.518135 1.061603
v 0.875002 -5.741909 0.723556
v 0.875002 -1.518135 0.723556
v 1.213049 -5.741909 1.061603
v 1.213049 -1.518135 1.061603
v 1.213049 -5.741909 0.723556
v 1.213049 -1.518135 0.723556
vn -0.6428 0.0000 0.7660
vn -0.7660 0.0000 -0.6428
vn 0.6428 0.0000 -0.7660
vn 0.7660 0.0000 0.6428
vn 0.0000 -1.0000 0.0000
vn 0.0000 1.0000 0.0000
vn -0.6428 0.0000 -0.7660
vn 0.7660 0.0000 -0.6428
vn 0.6428 0.0000 0.7660
vn -0.7660 0.0000 0.6428
vn -1.0000 0.0000 0.0000
vn -0.0000 0.0000 -1.0000
vn 1.0000 0.0000 0.0000
vn 0.0000 0.0000 1.0000
usemtl None
s off
f 1//1 2//1 4//1 3//1
f 3//2 4//2 8//2 7//2
f 7//3 8//3 6//3 5//3
f 5//4 6//4 2//4 1//4
f 3//5 7//5 5//5 1//5
f 8//6 4//6 2//6 6//6
f 9//7 10//7 12//7 11//7
f 11//8 12//8 16//8 15//8
f 15//9 16//9 14//9 13//9
f 13//10 14//10 10//10 9//10
f 11//5 15//5 13//5 9//5
f 16//6 12//6 10//6 14//6
f 17//11 18//11 20//11 19//11
f 19//12 20//12 24//12 23//12
f 23//13 24//13 22//13 21//13
f 21//14 22//14 18//14 17//14
f 19//5 23//5 21//5 17//5
f 24//6 20//6 18//6 22//6
f 25//11 26//11 28//11 27//11
f 27//12 28//12 32//12 31//12
f 31//13 32//13 30//13 29//13
f 29//14 30//14 26//14 25//14
f 27//5 31//5 29//5 25//5
f 32//6 28//6 26//6 30//6
o Leg_Cube.005
v -1.009589 -5.741909 1.017450
v -1.009589 -5.537297 1.017450
v -1.785268 -5.741909 0.366578
v -1.785268 -5.537297 0.366578
v -0.878067 -5.741909 0.860709
v -0.878067 -5.537297 0.860709
v -1.653747 -5.741909 0.209836
v -1.653747 -5.537297 0.209836
v -1.166331 -5.741909 0.860709
v -1.166331 -5.537297 0.860709
v -0.390652 -5.741909 0.209836
v -0.390652 -5.537297 0.209836
v -1.034809 -5.741909 1.017450
v -1.034809 -5.537297 1.017450
v -0.259130 -5.741909 0.366578
v -0.259130 -5.537297 0.366578
v -1.124505 -5.741909 0.975624
v -1.124505 -5.537297 0.975624
v -1.124505 -5.741909 -0.036953
v -1.124505 -5.537297 -0.036953
v -0.919893 -5.741909 0.975624
v -0.919893 -5.537297 0.975624
v -0.919893 -5.741909 -0.036953
v -0.919893 -5.537297 -0.036953
v -1.169397 -5.741909 1.061603
v -1.169397 -1.518135 1.061603
v -1.169397 -5.741909 0.723556
v -1.169397 -1.518135 0.723556
v -0.831350 -5.741909 1.061603
v -0.831350 -1.518135 1.061603
v -0.831350 -5.741909 0.723556
v -0.831350 -1.518135 0.723556
vn -0.6428 0.0000 0.7660
vn -0.7660 0.0000 -0.6428
vn 0.6428 0.0000 -0.7660
vn 0.7660 0.0000 0.6428
vn 0.0000 -1.0000 -0.0000
vn 0.0000 1.0000 -0.0000
vn -0.6428 0.0000 -0.7660
vn 0.7660 0.0000 -0.6428
vn 0.6428 0.0000 0.7660
vn -0.7660 0.0000 0.6428
vn -1.0000 0.0000 0.0000
vn -0.0000 0.0000 -1.0000
vn 1.0000 0.0000 -0.0000
vn 0.0000 0.0000 1.0000
usemtl None
s off
f 33//15 34//15 36//15 35//15
f 35//16 36//16 40//16 39//16
f 39//17 40//17 38//17 37//17
f 37//18 38//18 34//18 33//18
f 35//19 39//19 37//19 33//19
f 40//20 36//20 34//20 38//20
f 41//21 42//21 44//21 43//21
f 43//22 44//22 48//22 47//22
f 47//23 48//23 46//23 45//23
f 45//24 46//24 42//24 41//24
f 43//19 47//19 45//19 41//19
f 48//20 44//20 42//20 46//20
f 49//25 50//25 52//25 51//25
f 51//26 52//26 56//26 55//26
f 55//27 56//27 54//27 53//27
f 53//28 54//28 50//28 49//28
f 51//19 55//19 53//19 49//19
f 56//20 52//20 50//20 54//20
f 57//25 58//25 60//25 59//25
f 59//26 60//26 64//26 63//26
f 63//27 64//27 62//27 61//27
f 61//28 62//28 58//28 57//28
f 59//19 63//19 61//19 57//19
f 64//20 60//20 58//20 62//20
o Head_Cube.003
v -0.454041 4.741942 -1.565948
v -0.454041 5.650023 -1.565948
v -0.454041 4.741942 -2.474029
v -0.454041 5.650023 -2.474029
v -0.454041 5.133107 -1.565948
v -0.454041 5.133107 -2.474029
v -0.454041 4.937524 -2.474029
v -0.454041 4.937524 -1.565948
v -0.227020 4.741942 -2.474029
v -0.227020 5.650023 -1.565948
v -0.227020 5.133107 -1.565948
v -0.227020 4.937524 -1.565948
v -0.227020 5.650023 -2.474029
v -0.227020 4.741942 -1.565948
v -0.227020 5.133107 -2.543179
v -0.227020 4.937524 -2.543179
v -0.227020 5.133107 -3.073506
v -0.227020 4.937524 -3.073506
v 0.454041 4.741942 -1.565948
v 0.454041 5.650023 -1.565948
v 0.454041 4.741942 -2.474029
v 0.454041 5.650023 -2.474029
v 0.454041 5.133107 -1.565948
v 0.454041 5.133107 -2.474029
v 0.454041 4.937524 -2.474029
v 0.454041 4.937524 -1.565948
v 0.000000 4.741942 -2.474029
v 0.000000 5.650023 -2.474029
v 0.000000 4.741942 -1.565948
v 0.000000 5.650023 -1.565948
v 0.000000 5.133107 -1.565948
v 0.000000 5.133107 -2.543179
v 0.000000 4.937524 -2.543179
v 0.000000 4.937524 -1.565948
v 0.227020 4.741942 -2.474029
v 0.227020 5.650023 -1.565948
v 0.227020 5.133107 -1.565948
v 0.227020 4.937524 -1.565948
v 0.227020 5.650023 -2.474029
v 0.227020 4.741942 -1.565948
v 0.227020 5.133107 -2.543179
v 0.227020 4.937524 -2.543179
v 0.227020 5.133107 -3.073506
v 0.000000 5.133107 -3.073506
v 0.227020 4.937524 -3.073506
v 0.000000 4.937524 -3.073506
vn -1.0000 0.0000 0.0000
vn 0.0000 0.0000 1.0000
vn 0.0000 1.0000 0.0000
vn 0.0000 -0.3333 -0.9428
vn 0.0000 -1.0000 0.0000
vn 0.0000 0.1326 -0.9912
vn -0.1502 0.0660 -0.9864
vn -0.2914 0.0000 -0.9566
vn -0.1483 -0.1722 -0.9738
vn 0.0000 0.0000 -1.0000
vn 1.0000 0.0000 0.0000
vn 0.1502 0.0660 -0.9864
vn 0.2914 0.0000 -0.9566
vn 0.1483 -0.1722 -0.9738
usemtl None
s off
f 69//29 66//29 68//29 70//29
f 75//30 74//30 66//30 69//30
f 77//31 68//31 66//31 74//31
f 76//30 75//30 69//30 72//30
f 72//29 69//29 70//29 71//29
f 65//29 72//29 71//29 67//29
f 78//30 76//30 72//30 65//30
f 73//32 80//32 97//32 91//32
f 79//31 96//31 108//31 81//31
f 73//33 91//33 93//33 78//33
f 79//34 77//34 92//34 96//34
f 70//35 68//35 77//35 79//35
f 67//33 73//33 78//33 65//33
f 71//36 70//36 79//36 80//36
f 67//37 71//37 80//37 73//37
f 93//30 98//30 76//30 78//30
f 98//30 95//30 75//30 76//30
f 92//31 77//31 74//31 94//31
f 95//30 94//30 74//30 75//30
f 82//38 81//38 108//38 110//38
f 80//29 79//29 81//29 82//29
f 97//33 80//33 82//33 110//33
f 87//39 88//39 86//39 84//39
f 101//30 87//30 84//30 100//30
f 103//31 100//31 84//31 86//31
f 102//30 90//30 87//30 101//30
f 90//39 89//39 88//39 87//39
f 83//39 85//39 89//39 90//39
f 104//30 83//30 90//30 102//30
f 99//32 91//32 97//32 106//32
f 105//31 107//31 108//31 96//31
f 99//33 104//33 93//33 91//33
f 105//34 96//34 92//34 103//34
f 88//40 105//40 103//40 86//40
f 85//33 83//33 104//33 99//33
f 89//41 106//41 105//41 88//41
f 85//42 99//42 106//42 89//42
f 93//30 104//30 102//30 98//30
f 98//30 102//30 101//30 95//30
f 92//31 94//31 100//31 103//31
f 95//30 101//30 100//30 94//30
f 109//38 110//38 108//38 107//38
f 106//39 109//39 107//39 105//39
f 97//33 110//33 109//33 106//33
f 96//29 108//29 110//29 97//29
o Neck_Cube.002
v -0.250000 1.374261 -1.641501
v -0.250000 4.877742 -1.641501
v -0.250000 1.374261 -2.141501
v -0.250000 4.877742 -2.141501
v 0.250000 1.374261 -1.641501
v 0.250000 4.877742 -1.641501
v 0.250000 1.374261 -2.141501
v 0.250000 4.877742 -2.141501
vn -1.0000 0.0000 0.0000
vn 0.0000 0.0000 -1.0000
vn 1.0000 0.0000 0.0000
vn 0.0000 0.0000 1.0000
vn 0.0000 -1.0000 0.0000
vn 0.0000 1.0000 0.0000
usemtl None
s off
f 111//43 112//43 114//43 113//43
f 113//44 114//44 118//44 117//44
f 117//45 118//45 116//45 115//45
f 115//46 116//46 112//46 111//46
f 113//47 117//47 115//47 111//47
f 118//48 114//48 112//48 116//48
o Body_Cube.001
v 1.565148 -1.519821 2.020513
v 1.565148 1.519821 2.020513
v 1.565148 -1.519821 -2.020513
v 1.565148 1.519821 -2.020513
v 2.336068 -1.058791 1.991386
v 2.336068 0.531049 1.991386
v 1.412573 -0.090868 -0.927596
v 1.412573 1.498972 -0.927596
v 2.464322 -1.058791 1.991385
v 2.464322 0.531049 1.991385
v 1.540827 -0.090868 -0.927595
v 1.540827 1.498971 -0.927595
v -1.565148 -1.519821 2.020513
v -1.565148 1.519821 2.020513
v -1.565148 -1.519821 -2.020513
v -1.565148 1.519821 -2.020513
v 0.000000 -1.519821 -2.020513
v 0.000000 1.519821 -2.020513
v 0.000000 -1.519821 2.020513
v 0.000000 1.519821 2.020513
v -2.336068 -1.058791 1.991386
v -2.336068 0.531049 1.991386
v -1.412573 -0.090868 -0.927596
v -1.412573 1.498972 -0.927596
v -2.464322 -1.058791 1.991385
v -2.464322 0.531049 1.991385
v -1.540827 -0.090868 -0.927595
v -1.540827 1.498971 -0.927595
vn 0.0000 0.0000 -1.0000
vn 1.0000 0.0000 0.0000
vn 0.0000 -1.0000 0.0000
vn 0.0000 1.0000 0.0000
vn 0.0000 0.0000 1.0000
vn 0.9534 0.0000 -0.3016
vn 0.0000 -0.9492 -0.3147
vn 0.0000 0.9492 0.3147
vn -0.9534 0.0000 0.3016
vn -1.0000 0.0000 0.0000
vn -0.9534 0.0000 -0.3016
vn 0.9534 0.0000 0.3016
usemtl None
s off
f 135//49 136//49 122//49 121//49
f 121//50 122//50 120//50 119//50
f 135//51 121//51 119//51 137//51
f 122//52 136//52 138//52 120//52
f 119//53 120//53 138//53 137//53
f 125//49 126//49 130//49 129//49
f 129//54 130//54 128//54 127//54
f 127//53 128//53 124//53 123//53
f 125//55 129//55 127//55 123//55
f 130//56 126//56 124//56 128//56
f 125//57 123//57 124//57 126//57
f 135//49 133//49 134//49 136//49
f 133//58 131//58 132//58 134//58
f 135//51 137//51 131//51 133//51
f 134//52 132//52 138//52 136//52
f 131//53 137//53 138//53 132//53
f 141//49 145//49 146//49 142//49
f 145//59 143//59 144//59 146//59
f 143//53 139//53 140//53 144//53
f 141//55 139//55 143//55 145//55
f 146//56 144//56 140//56 142//56
f 141//60 142//60 140//60 139//60
