# Blender v2.78 (sub 0) OBJ File: 'ostrich.blend'
# www.blender.org
mtllib ostrich.mtl
o Leg.001_Cube.005
v -0.231133 0.034957 0.554312
v -0.231133 0.239568 0.554312
v 0.444525 0.034957 -0.199876
v 0.444525 0.239568 -0.199876
v -0.078734 0.034957 0.690842
v -0.078734 0.239568 0.690842
v 0.596924 0.034957 -0.063346
v 0.596924 0.239568 -0.063346
v -0.069396 0.034956 0.402730
v -0.069396 0.239568 0.402730
v 0.556008 0.034956 1.199086
v 0.556008 0.239568 1.199086
v -0.230316 0.034956 0.529105
v -0.230316 0.239568 0.529105
v 0.395088 0.034956 1.325461
v 0.395088 0.239568 1.325461
v -0.185606 0.034956 0.440811
v -0.185606 0.239568 0.440811
v 0.826440 0.034956 0.473612
v 0.826440 0.239568 0.473612
v -0.192234 0.034956 0.645315
v -0.192234 0.239568 0.645315
v 0.819812 0.034956 0.678116
v 0.819812 0.239568 0.678116
v -0.270085 0.034957 0.393157
v -0.270085 4.258730 0.393157
v 0.067784 0.034957 0.404108
v 0.067784 4.258730 0.404108
v -0.281036 0.034957 0.731027
v -0.281036 4.258730 0.731027
v 0.056834 0.034957 0.741978
v 0.056834 4.258730 0.741978
vn -0.7448 0.0000 -0.6673
vn 0.6673 0.0000 -0.7448
vn 0.7448 0.0000 0.6673
vn -0.6673 0.0000 0.7448
vn 0.0000 -1.0000 -0.0000
vn 0.0000 1.0000 0.0000
vn 0.7865 0.0000 -0.6176
vn 0.6176 0.0000 0.7865
vn -0.7865 0.0000 0.6176
vn -0.6176 0.0000 -0.7865
vn 0.0324 0.0000 -0.9995
vn 0.9995 0.0000 0.0324
vn -0.0324 0.0000 0.9995
vn -0.9995 0.0000 -0.0324
usemtl None
s off
f 1//1 2//1 4//1 3//1
f 3//2 4//2 8//2 7//2
f 7//3 8//3 6//3 5//3
f 5//4 6//4 2//4 1//4
f 3//5 7//5 5//5 1//5
f 8//6 4//6 2//6 6//6
f 9//7 10//7 12//7 11//7
f 11//8 12//8 16//8 15//8
f 15//9 16//9 14//9 13//9
f 13//10 14//10 10//10 9//10
f 11//5 15//5 13//5 9//5
f 16//6 12//6 10//6 14//6
f 17//11 18//11 20//11 19//11
f 19//12 20//12 24//12 23//12
f 23//13 24//13 22//13 21//13
f 21//14 22//14 18//14 17//14
f 19//5 23//5 21//5 17//5
f 24//6 20//6 18//6 22//6
f 25//11 26//11 28//11 27//11
f 27//12 28//12 32//12 31//12
f 31//13 32//13 30//13 29//13
f 29//14 30//14 26//14 25//14
f 27//5 31//5 29//5 25//5
f 32//6 28//6 26//6 30//6
o Leg_Cube.005
v -0.164907 0.034957 -1.489015
v -0.164907 0.239568 -1.489015
v 0.510751 0.034957 -2.243203
v 0.510751 0.239568 -2.243203
v -0.012508 0.034957 -1.352484
v -0.012508 0.239568 -1.352484
v 0.663150 0.034957 -2.106672
v 0.663150 0.239568 -2.106672
v -0.003170 0.034956 -1.640596
v -0.003170 0.239568 -1.640596
v 0.622233 0.034956 -0.844240
v 0.622233 0.239568 -0.844240
v -0.164090 0.034956 -1.514221
v -0.164090 0.239568 -1.514221
v 0.461314 0.034956 -0.717865
v 0.461314 0.239568 -0.717865
v -0.119381 0.034956 -1.602515
v -0.119381 0.239568 -1.602515
v 0.892665 0.034956 -1.569714
v 0.892665 0.239568 -1.569714
v -0.126009 0.034956 -1.398011
v -0.126009 0.239568 -1.398011
v 0.886037 0.034956 -1.365210
v 0.886037 0.239568 -1.365210
v -0.203860 0.034957 -1.650169
v -0.203860 4.258730 -1.650169
v 0.134010 0.034957 -1.639218
v 0.134010 4.258730 -1.639218
v -0.214810 0.034957 -1.312299
v -0.214810 4.258730 -1.312299
v 0.123060 0.034957 -1.301348
v 0.123060 4.258730 -1.301348
vn -0.7448 0.0000 -0.6673
vn 0.6673 0.0000 -0.7448
vn 0.7448 0.0000 0.6673
vn -0.6673 0.0000 0.7448
vn 0.0000 -1.0000 -0.0000
vn 0.0000 1.0000 0.0000
vn 0.7865 0.0000 -0.6176
vn 0.6176 0.0000 0.7865
vn -0.7865 0.0000 0.6176
vn -0.6176 0.0000 -0.7865
vn 0.0324 0.0000 -0.9995
vn 0.9995 0.0000 0.0324
vn -0.0324 0.0000 0.9995
vn -0.9995 0.0000 -0.0324
usemtl None
s off
f 33//15 34//15 36//15 35//15
f 35//16 36//16 40//16 39//16
f 39//17 40//17 38//17 37//17
f 37//18 38//18 34//18 33//18
f 35//19 39//19 37//19 33//19
f 40//20 36//20 34//20 38//20
f 41//21 42//21 44//21 43//21
f 43//22 44//22 48//22 47//22
f 47//23 48//23 46//23 45//23
f 45//24 46//24 42//24 41//24
f 43//19 47//19 45//19 41//19
f 48//20 44//20 42//20 46//20
f 49//25 50//25 52//25 51//25
f 51//26 52//26 56//26 55//26
f 55//27 56//27 54//27 53//27
f 53//28 54//28 50//28 49//28
f 51//19 55//19 53//19 49//19
f 56//20 52//20 50//20 54//20
f 57//25 58//25 60//25 59//25
f 59//26 60//26 64//26 63//26
f 63//27 64//27 62//27 61//27
f 61//28 62//28 58//28 57//28
f 59//19 63//19 61//19 57//19
f 64//20 60//20 58//20 62//20
o Head_Cube.003
v 2.399139 10.518806 -0.850072
v 2.399139 11.426888 -0.850072
v 3.306744 10.518806 -0.820656
v 3.306744 11.426888 -0.820656
v 2.399139 10.909971 -0.850072
v 3.306744 10.909971 -0.820656
v 3.306744 10.714389 -0.820656
v 2.399139 10.714389 -0.850072
v 3.299390 10.518806 -0.593754
v 2.391785 11.426888 -0.623171
v 2.391785 10.909971 -0.623171
v 2.391785 10.714389 -0.623171
v 3.299390 11.426888 -0.593754
v 2.391785 10.518806 -0.623171
v 3.368503 10.909971 -0.591514
v 3.368503 10.714389 -0.591514
v 3.898552 10.909971 -0.574335
v 3.898552 10.714389 -0.574335
v 2.369723 10.518806 0.057533
v 2.369723 11.426888 0.057533
v 3.277328 10.518806 0.086949
v 3.277328 11.426888 0.086949
v 2.369723 10.909971 0.057533
v 3.277328 10.909971 0.086949
v 3.277328 10.714389 0.086949
v 2.369723 10.714389 0.057533
v 3.292036 10.518806 -0.366853
v 3.292036 11.426888 -0.366853
v 2.384431 10.518806 -0.396269
v 2.384431 11.426888 -0.396269
v 2.384431 10.909971 -0.396269
v 3.361149 10.909971 -0.364613
v 3.361149 10.714389 -0.364613
v 2.384431 10.714389 -0.396269
v 3.284682 10.518806 -0.139952
v 2.377077 11.426888 -0.169368
v 2.377077 10.909971 -0.169368
v 2.377077 10.714389 -0.169368
v 3.284682 11.426888 -0.139952
v 2.377077 10.518806 -0.169368
v 3.353795 10.909971 -0.137712
v 3.353795 10.714389 -0.137712
v 3.883844 10.909971 -0.120533
v 3.891198 10.909971 -0.347434
v 3.883844 10.714389 -0.120533
v 3.891198 10.714389 -0.347434
vn 0.0324 0.0000 -0.9995
vn -0.9995 0.0000 -0.0324
vn 0.0000 1.0000 -0.0000
vn 0.9423 -0.3333 0.0305
vn 0.0000 -1.0000 -0.0000
vn 0.9907 0.1326 0.0321
vn 0.9908 0.0660 -0.1182
vn 0.9655 0.0000 -0.2602
vn 0.9781 -0.1722 -0.1167
vn 0.9995 0.0000 0.0324
vn -0.0324 0.0000 0.9995
vn 0.9811 0.0660 0.1821
vn 0.9467 0.0000 0.3222
vn 0.9685 -0.1722 0.1798
usemtl None
s off
f 69//29 66//29 68//29 70//29
f 75//30 74//30 66//30 69//30
f 77//31 68//31 66//31 74//31
f 76//30 75//30 69//30 72//30
f 72//29 69//29 70//29 71//29
f 65//29 72//29 71//29 67//29
f 78//30 76//30 72//30 65//30
f 73//32 80//32 97//32 91//32
f 79//31 96//31 108//31 81//31
f 73//33 91//33 93//33 78//33
f 79//34 77//34 92//34 96//34
f 70//35 68//35 77//35 79//35
f 67//33 73//33 78//33 65//33
f 71//36 70//36 79//36 80//36
f 67//37 71//37 80//37 73//37
f 93//30 98//30 76//30 78//30
f 98//30 95//30 75//30 76//30
f 92//31 77//31 74//31 94//31
f 95//30 94//30 74//30 75//30
f 82//38 81//38 108//38 110//38
f 80//29 79//29 81//29 82//29
f 97//33 80//33 82//33 110//33
f 87//39 88//39 86//39 84//39
f 101//30 87//30 84//30 100//30
f 103//31 100//31 84//31 86//31
f 102//30 90//30 87//30 101//30
f 90//39 89//39 88//39 87//39
f 83//39 85//39 89//39 90//39
f 104//30 83//30 90//30 102//30
f 99//32 91//32 97//32 106//32
f 105//31 107//31 108//31 96//31
f 99//33 104//33 93//33 91//33
f 105//34 96//34 92//34 103//34
f 88//40 105//40 103//40 86//40
f 85//33 83//33 104//33 99//33
f 89//41 106//41 105//41 88//41
f 85//42 99//42 106//42 89//42
f 93//30 104//30 102//30 98//30
f 98//30 102//30 101//30 95//30
f 92//31 94//31 100//31 103//31
f 95//30 101//30 100//30 94//30
f 109//38 110//38 108//38 107//38
f 106//39 109//39 107//39 105//39
f 97//33 110//33 109//33 106//33
f 96//29 108//29 110//29 97//29
o Neck_Cube.002
v 2.468043 7.151126 -0.643691
v 2.468043 10.654608 -0.643691
v 2.967780 7.151126 -0.627494
v 2.967780 10.654608 -0.627494
v 2.451846 7.151126 -0.143953
v 2.451846 10.654608 -0.143953
v 2.951583 7.151126 -0.127756
v 2.951583 10.654608 -0.127756
vn 0.0324 0.0000 -0.9995
vn 0.9995 0.0000 0.0324
vn -0.0324 0.0000 0.9995
vn -0.9995 0.0000 -0.0324
vn 0.0000 -1.0000 0.0000
vn 0.0000 1.0000 0.0000
usemtl None
s off
f 111//43 112//43 114//43 113//43
f 113//44 114//44 118//44 117//44
f 117//45 118//45 116//45 115//45
f 115//46 116//46 112//46 111//46
f 113//47 117//47 115//47 111//47
f 118//48 114//48 112//48 116//48
o Body_Cube.001
v -1.201208 4.257044 1.118152
v -1.201208 7.296686 1.118152
v 2.839818 4.257044 1.118152
v 2.839818 7.296686 1.118152
v -1.172081 4.718074 1.889072
v -1.172081 6.307914 1.889072
v 1.746901 5.685997 0.965577
v 1.746901 7.275837 0.965577
v -1.172081 4.718074 2.017325
v -1.172081 6.307914 2.017325
v 1.746900 5.685997 1.093831
v 1.746900 7.275836 1.093831
v -1.201208 4.257044 -2.012145
v -1.201208 7.296686 -2.012145
v 2.839818 4.257044 -2.012145
v 2.839818 7.296686 -2.012145
v 2.839818 4.257044 -0.446996
v 2.839818 7.296686 -0.446996
v -1.201208 4.257044 -0.446996
v -1.201208 7.296686 -0.446996
v -1.172081 4.718074 -2.783064
v -1.172081 6.307914 -2.783064
v 1.746901 5.685997 -1.859570
v 1.746901 7.275837 -1.859570
v -1.172080 4.718074 -2.911318
v -1.172080 6.307914 -2.911318
v 1.746900 5.685997 -1.987823
v 1.746900 7.275836 -1.987823
vn 1.0000 0.0000 0.0000
vn -0.0000 0.0000 1.0000
vn 0.0000 -1.0000 0.0000
vn 0.0000 1.0000 0.0000
vn -1.0000 0.0000 0.0000
vn 0.3016 0.0000 0.9534
vn 0.3147 -0.9492 0.0000
vn -0.3147 0.9492 0.0000
vn -0.3016 0.0000 -0.9534
vn 0.0000 0.0000 -1.0000
vn 0.3016 0.0000 -0.9534
vn -0.3016 0.0000 0.9534
usemtl None
s off
f 135//49 136//49 122//49 121//49
f 121//50 122//50 120//50 119//50
f 135//51 121//51 119//51 137//51
f 122//52 136//52 138//52 120//52
f 119//53 120//53 138//53 137//53
f 125//49 126//49 130//49 129//49
f 129//54 130//54 128//54 127//54
f 127//53 128//53 124//53 123//53
f 125//55 129//55 127//55 123//55
f 130//56 126//56 124//56 128//56
f 125//57 123//57 124//57 126//57
f 135//49 133//49 134//49 136//49
f 133//58 131//58 132//58 134//58
f 135//51 137//51 131//51 133//51
f 134//52 132//52 138//52 136//52
f 131//53 137//53 138//53 132//53
f 141//49 145//49 146//49 142//49
f 145//59 143//59 144//59 146//59
f 143//53 139//53 140//53 144//53
f 141//55 139//55 143//55 145//55
f 146//56 144//56 140//56 142//56
f 141//60 142//60 140//60 139//60
