# Blender v2.79 (sub 0) OBJ File: 'wolf.blend'
# www.blender.org
mtllib wolf.mtl
o wOLF_Cube
v -0.100000 -0.210180 1.326624
v -0.100000 0.833912 0.980401
v -0.100000 -0.273130 1.136789
v -0.100000 0.770963 0.790566
v 0.100000 -0.210180 1.326624
v 0.100000 0.833912 0.980401
v 0.100000 -0.273130 1.136789
v 0.100000 0.770963 0.790566
v -0.200000 0.250000 -1.350000
v -0.200000 0.600000 -1.350000
v -0.200000 0.250000 -1.850000
v -0.200000 0.600000 -1.850000
v 0.200000 0.250000 -1.350000
v 0.200000 0.600000 -1.350000
v 0.200000 0.250000 -1.850000
v 0.200000 0.600000 -1.850000
v -0.325000 0.875000 -0.970000
v -0.325000 1.125000 -0.970000
v -0.325000 0.875000 -1.070000
v -0.325000 1.125000 -1.070000
v -0.125000 0.875000 -0.970000
v -0.125000 1.125000 -0.970000
v -0.125000 0.875000 -1.070000
v -0.125000 1.125000 -1.070000
v 0.125000 0.875000 -0.970000
v 0.125000 1.125000 -0.970000
v 0.125000 0.875000 -1.070000
v 0.125000 1.125000 -1.070000
v 0.325000 0.875000 -0.970000
v 0.325000 1.125000 -0.970000
v 0.325000 0.875000 -1.070000
v 0.325000 1.125000 -1.070000
v -0.350000 0.250000 -0.970000
v -0.350000 0.950000 -0.970000
v -0.350000 0.250000 -1.470000
v -0.350000 0.950000 -1.470000
v 0.350000 0.250000 -0.970000
v 0.350000 0.950000 -0.970000
v 0.350000 0.250000 -1.470000
v 0.350000 0.950000 -1.470000
v 0.150000 -1.128128 0.920000
v 0.150000 -0.311872 0.920000
v 0.150000 -1.128128 0.520000
v 0.150000 -0.311872 0.520000
v 0.550000 -1.128128 0.920000
v 0.550000 -0.311872 0.920000
v 0.550000 -1.128128 0.520000
v 0.550000 -0.311872 0.520000
v -0.550000 -1.128128 0.920000
v -0.550000 -0.311872 0.920000
v -0.550000 -1.128128 0.520000
v -0.550000 -0.311872 0.520000
v -0.150000 -1.128128 0.920000
v -0.150000 -0.311872 0.920000
v -0.150000 -1.128128 0.520000
v -0.150000 -0.311872 0.520000
v -0.550000 -1.128128 -0.520000
v -0.550000 -0.311872 -0.520000
v -0.550000 -1.128128 -0.920000
v -0.550000 -0.311872 -0.920000
v -0.150000 -1.128128 -0.520000
v -0.150000 -0.311872 -0.520000
v -0.150000 -1.128128 -0.920000
v -0.150000 -0.311872 -0.920000
v 0.150000 -1.128128 -0.520000
v 0.150000 -0.311872 -0.520000
v 0.150000 -1.128128 -0.920000
v 0.150000 -0.311872 -0.920000
v 0.550000 -1.128128 -0.520000
v 0.550000 -0.311872 -0.520000
v 0.550000 -1.128128 -0.920000
v 0.550000 -0.311872 -0.920000
v 0.600000 -0.348466 -1.000000
v 0.600000 -0.348466 1.000000
v -0.600000 -0.348466 1.000000
v -0.600000 -0.348466 -1.000000
v 0.600000 0.851534 -0.999999
v 0.600000 0.851534 1.000001
v -0.600000 0.851534 1.000000
v -0.600000 0.851534 -1.000000
vn -1.0000 0.0000 0.0000
vn 0.0000 -0.3147 -0.9492
vn 1.0000 0.0000 0.0000
vn 0.0000 0.3147 0.9492
vn 0.0000 -0.9492 0.3147
vn 0.0000 0.9492 -0.3147
vn 0.0000 0.0000 -1.0000
vn 0.0000 0.0000 1.0000
vn 0.0000 -1.0000 0.0000
vn 0.0000 1.0000 0.0000
usemtl Material
s off
f 1//1 2//1 4//1 3//1
f 3//2 4//2 8//2 7//2
f 7//3 8//3 6//3 5//3
f 5//4 6//4 2//4 1//4
f 3//5 7//5 5//5 1//5
f 8//6 4//6 2//6 6//6
f 9//1 10//1 12//1 11//1
f 11//7 12//7 16//7 15//7
f 15//3 16//3 14//3 13//3
f 13//8 14//8 10//8 9//8
f 11//9 15//9 13//9 9//9
f 16//10 12//10 10//10 14//10
f 17//1 18//1 20//1 19//1
f 19//7 20//7 24//7 23//7
f 23//3 24//3 22//3 21//3
f 21//8 22//8 18//8 17//8
f 19//9 23//9 21//9 17//9
f 24//10 20//10 18//10 22//10
f 25//1 26//1 28//1 27//1
f 27//7 28//7 32//7 31//7
f 31//3 32//3 30//3 29//3
f 29//8 30//8 26//8 25//8
f 27//9 31//9 29//9 25//9
f 32//10 28//10 26//10 30//10
f 33//1 34//1 36//1 35//1
f 35//7 36//7 40//7 39//7
f 39//3 40//3 38//3 37//3
f 37//8 38//8 34//8 33//8
f 35//9 39//9 37//9 33//9
f 40//10 36//10 34//10 38//10
f 41//1 42//1 44//1 43//1
f 43//7 44//7 48//7 47//7
f 47//3 48//3 46//3 45//3
f 45//8 46//8 42//8 41//8
f 43//9 47//9 45//9 41//9
f 48//10 44//10 42//10 46//10
f 49//1 50//1 52//1 51//1
f 51//7 52//7 56//7 55//7
f 55//3 56//3 54//3 53//3
f 53//8 54//8 50//8 49//8
f 51//9 55//9 53//9 49//9
f 56//10 52//10 50//10 54//10
f 57//1 58//1 60//1 59//1
f 59//7 60//7 64//7 63//7
f 63//3 64//3 62//3 61//3
f 61//8 62//8 58//8 57//8
f 59//9 63//9 61//9 57//9
f 64//10 60//10 58//10 62//10
f 65//1 66//1 68//1 67//1
f 67//7 68//7 72//7 71//7
f 71//3 72//3 70//3 69//3
f 69//8 70//8 66//8 65//8
f 67//9 71//9 69//9 65//9
f 72//10 68//10 66//10 70//10
f 73//9 74//9 75//9 76//9
f 77//10 80//10 79//10 78//10
f 73//3 77//3 78//3 74//3
f 74//8 78//8 79//8 75//8
f 75//1 79//1 80//1 76//1
f 77//7 73//7 76//7 80//7
